<?xml version="1.0" encoding="UTF-8" standalone="no"?>
<!-- Created with Inkscape (http://www.inkscape.org/) -->

<svg
   width="512"
   height="512"
   viewBox="0 0 512 512"
   version="1.1"
   id="svg5"
   inkscape:version="1.2.1 (9c6d41e410, 2022-07-14)"
   sodipodi:docname="logo.svg"
   inkscape:export-filename="logo512.png"
   inkscape:export-xdpi="96"
   inkscape:export-ydpi="96"
   xmlns:inkscape="http://www.inkscape.org/namespaces/inkscape"
   xmlns:sodipodi="http://sodipodi.sourceforge.net/DTD/sodipodi-0.dtd"
   xmlns:xlink="http://www.w3.org/1999/xlink"
   xmlns="http://www.w3.org/2000/svg"
   xmlns:svg="http://www.w3.org/2000/svg"
   xmlns:rdf="http://www.w3.org/1999/02/22-rdf-syntax-ns#"
   xmlns:cc="http://creativecommons.org/ns#"
   xmlns:dc="http://purl.org/dc/elements/1.1/">
  <title
     id="title1181">ChromaBeam Logo</title>
  <sodipodi:namedview
     id="namedview7"
     pagecolor="#505050"
     bordercolor="#eeeeee"
     borderopacity="1"
     inkscape:showpageshadow="0"
     inkscape:pageopacity="0"
     inkscape:pagecheckerboard="0"
     inkscape:deskcolor="#505050"
     inkscape:document-units="px"
     showgrid="false"
     inkscape:zoom="0.5"
     inkscape:cx="-21"
     inkscape:cy="333"
     inkscape:window-width="2400"
     inkscape:window-height="1261"
     inkscape:window-x="2391"
     inkscape:window-y="-6"
     inkscape:window-maximized="1"
     inkscape:current-layer="layer1" />
  <defs
     id="defs2">
    <linearGradient
       inkscape:collect="always"
       id="linearGradient1174">
      <stop
         style="stop-color:#1d1e37;stop-opacity:1;"
         offset="0"
         id="stop1170" />
      <stop
         style="stop-color:#16162b;stop-opacity:1;"
         offset="0.5"
         id="stop1172" />
    </linearGradient>
    <linearGradient
       inkscape:collect="always"
       id="linearGradient1041">
      <stop
         style="stop-color:#ffffff;stop-opacity:1;"
         offset="0"
         id="stop1037" />
      <stop
         style="stop-color:#c3c3c3;stop-opacity:1;"
         offset="1"
         id="stop1039" />
    </linearGradient>
    <linearGradient
       inkscape:collect="always"
       id="linearGradient925">
      <stop
         style="stop-color:#2e2f53;stop-opacity:1;"
         offset="0"
         id="stop921" />
      <stop
         style="stop-color:#252549;stop-opacity:1;"
         offset="0.5"
         id="stop929" />
    </linearGradient>
    <linearGradient
       inkscape:collect="always"
       xlink:href="#linearGradient925"
       id="linearGradient927"
       x1="10"
       y1="85"
       x2="502"
       y2="85"
       gradientUnits="userSpaceOnUse"
       gradientTransform="matrix(1.0406504,0,0,0.99999997,-0.40650407,2.3336446e-7)" />
    <radialGradient
       inkscape:collect="always"
       xlink:href="#linearGradient1041"
       id="radialGradient1161"
       gradientUnits="userSpaceOnUse"
       cx="427"
       cy="85"
       fx="427"
       fy="85"
       r="60"
       gradientTransform="translate(20)" />
    <linearGradient
       inkscape:collect="always"
       xlink:href="#linearGradient1174"
       id="linearGradient1168"
       gradientUnits="userSpaceOnUse"
       x1="10"
       y1="85"
       x2="502"
       y2="85"
       gradientTransform="matrix(1.0406504,0,0,2.0000002,-0.40650407,-186)" />
  </defs>
  <g
     inkscape:label="Ebene 1"
     inkscape:groupmode="layer"
     id="layer1">
    <g
       id="g1159"
       transform="translate(-10,234.5)"
       style="display:inline"
       inkscape:label="projector">
      <rect
         style="display:inline;fill:url(#linearGradient1168);fill-opacity:1;stroke:none;stroke-width:4.99997;stroke-linejoin:round;stroke-opacity:1"
         id="rect1163"
         width="512"
         height="300"
         x="10"
         y="-166"
         rx="25"
         inkscape:label="body" />
      <g
         id="g1322"
         inkscape:label="front"
         transform="translate(0,49)">
        <rect
           style="display:inline;fill:url(#linearGradient927);fill-opacity:1;stroke:none;stroke-width:4.99999;stroke-linejoin:round;stroke-opacity:1"
           id="rect234"
           width="512"
           height="150"
           x="10"
           y="10"
           rx="25"
           inkscape:label="front" />
        <g
           aria-label="ChromaBeam"
           id="text1103"
           style="font-size:186.667px;font-family:Jellee;-inkscape-font-specification:'Jellee, Normal';display:inline;fill:#ffffff;stroke-width:5;stroke-linejoin:round"
           inkscape:label="chromabeam_text">
          <path
             d="m 42.272148,103.36591 q -5.605473,0 -9.479173,-2.16472 -3.873701,-2.1875 -5.833337,-6.220706 -1.959637,-4.055992 -1.959637,-9.684251 0,-5.491541 2.119142,-9.729825 2.119142,-4.238284 6.015629,-6.585291 3.919274,-2.347007 9.137376,-2.347007 4.238284,0 7.473963,1.321616 3.258466,1.298829 5.035811,3.48633 0.683594,0.820313 0.934246,1.595054 0.273437,0.751953 0.273437,1.617839 0,1.184897 -0.569662,2.164715 -0.569661,0.957032 -1.54948,1.526694 -0.979818,0.569662 -2.119142,0.569662 -1.139324,0 -2.119142,-0.546876 -0.957032,-0.569661 -1.572267,-1.503907 -0.979818,-1.54948 -2.392579,-2.369793 -1.412762,-0.820313 -3.395185,-0.820313 -2.278647,0 -4.055992,1.207683 -1.754559,1.184897 -2.77995,3.691409 -1.002605,2.506512 -1.002605,6.311853 0,3.896487 1.048178,6.471359 1.048178,2.552085 2.802736,3.759768 1.777345,1.207683 3.987633,1.207683 4.101565,0 6.061202,-3.55469 0.569662,-1.048178 1.572267,-1.663413 1.025391,-0.615234 2.255861,-0.615234 1.184896,0 2.164715,0.592448 1.002605,0.592448 1.595053,1.595053 0.592448,1.002605 0.592448,2.187502 0,0.751953 -0.296224,1.48112 -0.296224,0.729167 -1.025391,1.731772 -1.754559,2.415366 -5.013025,3.850916 -3.258465,1.43555 -7.906906,1.43555 z"
             style="font-size:46.6667px"
             id="path1207"
             inkscape:label="C" />
          <path
             d="m 64.352242,102.97854 q -1.184896,0 -2.187501,-0.56967 -0.979819,-0.59244 -1.572267,-1.59505 -0.592448,-1.002604 -0.592448,-2.164714 V 71.350911 q 0,-1.184897 0.592448,-2.164716 0.592448,-1.002604 1.572267,-1.595053 1.002605,-0.592448 2.187501,-0.592448 1.16211,0 2.164715,0.592448 1.002605,0.592449 1.572267,1.595053 0.592448,0.979819 0.592448,2.164716 v 9.707037 q 0.957032,-1.982423 2.848309,-3.212892 1.891278,-1.23047 4.762374,-1.23047 4.64844,0 6.790369,2.620444 2.164715,2.620445 2.164715,7.268886 v 12.14519 q 0,1.16211 -0.592449,2.164714 -0.592448,0.97982 -1.595053,1.57227 -0.979818,0.59245 -2.141928,0.59245 -1.184897,0 -2.187502,-0.56967 -0.979818,-0.59244 -1.572266,-1.59505 -0.592449,-1.002604 -0.592449,-2.164714 V 87.871104 q 0,-2.620444 -1.116537,-3.645836 -1.093751,-1.025391 -2.552085,-1.025391 -1.708986,0 -2.962242,1.253256 -1.253256,1.23047 -1.253256,4.488935 v 9.707038 q 0,1.16211 -0.592448,2.164714 -0.592448,0.97982 -1.595053,1.57227 -0.979819,0.59245 -2.141929,0.59245 z"
             style="font-size:46.6667px"
             id="path1209"
             inkscape:label="h" />
          <path
             d="m 93.83794,102.97854 q -1.184897,0 -2.187502,-0.56967 -0.979818,-0.59244 -1.572267,-1.59505 -0.592448,-1.002604 -0.592448,-2.164714 V 80.830084 q 0,-1.093751 0.546875,-2.00521 0.546876,-0.934245 1.458335,-1.481121 0.934245,-0.546875 2.005209,-0.546875 1.116538,0 2.050783,0.546875 0.934246,0.546876 1.481121,1.481121 0.546875,0.911459 0.546875,2.00521 v 1.116537 h 0.182292 q 0.957032,-2.711591 2.050783,-3.919274 1.093754,-1.230469 2.893884,-1.230469 1.45833,0 2.36979,0.615235 0.91146,0.592448 1.29883,1.458334 0.38737,0.865886 0.38737,1.708985 0,1.344402 -0.97982,2.347007 -0.97982,0.979819 -2.66602,1.344402 -2.39258,0.569662 -3.668618,2.324221 -1.276042,1.731772 -1.276042,4.397789 v 7.656255 q 0,1.16211 -0.592449,2.164714 -0.592448,0.97982 -1.595053,1.57227 -0.979818,0.59245 -2.141928,0.59245 z"
             style="font-size:46.6667px"
             id="path1211"
             inkscape:label="r" />
          <path
             d="m 121.364,103.18361 q -4.19271,0 -7.17774,-1.70898 -2.98503,-1.731773 -4.53451,-4.739588 -1.54948,-3.007814 -1.54948,-6.813155 0,-3.828128 1.57227,-6.835942 1.59505,-3.030601 4.62565,-4.739587 3.05339,-1.731772 7.2461,-1.731772 4.2155,0 7.22331,1.731772 3.03061,1.708986 4.58009,4.7168 1.54948,3.007815 1.54948,6.767583 0,3.850914 -1.61784,6.881515 -1.59506,3.030601 -4.67123,4.762374 -3.05339,1.70898 -7.2461,1.70898 z m 0.13672,-6.220703 q 2.32422,0 3.48633,-1.891277 1.1849,-1.891278 1.1849,-5.195316 0,-3.258466 -1.1849,-5.149743 -1.16211,-1.891278 -3.5319,-1.891278 -2.32422,0 -3.50912,1.891278 -1.16211,1.868491 -1.16211,5.10417 0,3.326825 1.1849,5.240889 1.18489,1.891277 3.5319,1.891277 z"
             style="font-size:46.6667px"
             id="path1213"
             inkscape:label="o" />
          <path
             d="m 142.78329,102.97854 q -1.1849,0 -2.18751,-0.56967 -0.97981,-0.59244 -1.57226,-1.59505 -0.59245,-1.002604 -0.59245,-2.164714 V 80.830084 q 0,-1.093751 0.54688,-2.00521 0.54687,-0.934245 1.45833,-1.481121 0.93425,-0.546875 2.00521,-0.546875 1.11654,0 2.05078,0.546875 0.93425,0.546876 1.48112,1.481121 0.54688,0.911459 0.54688,2.00521 v 0.638021 q 1.07096,-2.096356 3.12175,-3.463544 2.07356,-1.389975 5.08138,-1.389975 6.28907,0 8.20313,5.081384 1.16211,-2.369794 3.23568,-3.714196 2.07357,-1.367188 5.12696,-1.367188 4.64844,0 6.79036,2.643231 2.16472,2.643231 2.16472,7.291672 v 12.099617 q 0,1.16211 -0.59245,2.164714 -0.59245,0.97982 -1.59505,1.57227 -0.97982,0.59245 -2.14193,0.59245 -1.1849,0 -2.1875,-0.56967 -0.97982,-0.59244 -1.57227,-1.59505 -0.59245,-1.002604 -0.59245,-2.164714 V 87.871104 q 0,-2.597658 -1.11653,-3.600263 -1.09376,-1.025391 -2.55209,-1.025391 -1.70898,0 -2.96224,1.253256 -1.25326,1.253256 -1.25326,4.443362 v 9.707038 q 0,1.16211 -0.59245,2.164714 -0.59244,0.97982 -1.59505,1.57227 -0.97982,0.59245 -2.14193,0.59245 -1.18489,0 -2.1875,-0.56967 -0.97982,-0.59244 -1.57227,-1.59505 -0.59244,-1.002604 -0.59244,-2.164714 V 87.871104 q 0,-2.597658 -1.11654,-3.600263 -1.09375,-1.025391 -2.55209,-1.025391 -1.70898,0 -2.96224,1.253256 -1.25325,1.253256 -1.25325,4.443362 v 9.707038 q 0,1.16211 -0.59245,2.164714 -0.59245,0.97982 -1.59506,1.57227 -0.97981,0.59245 -2.14192,0.59245 z"
             style="font-size:46.6667px"
             id="path1215"
             inkscape:label="m" />
          <path
             d="m 192.09321,103.18361 q -2.39258,0 -4.375,-0.88867 -1.98242,-0.91146 -3.14453,-2.643229 -1.16211,-1.754558 -1.16211,-4.169925 0,-3.440757 1.93685,-5.263675 1.95963,-1.822918 4.80794,-2.415366 2.8711,-0.592449 6.42579,-0.592449 h 3.16732 q 0,-1.48112 -0.22787,-2.392579 -0.22786,-0.934246 -1.0026,-1.481121 -0.77474,-0.546876 -2.32422,-0.546876 -1.23047,0 -1.98243,0.410157 -0.72916,0.38737 -1.45833,1.116537 -0.70638,0.706381 -1.36719,1.070964 -0.63802,0.341798 -1.66341,0.341798 -1.02539,0 -1.89128,-0.45573 -0.8431,-0.455729 -1.3444,-1.253256 -0.5013,-0.820313 -0.5013,-1.845704 0,-1.845705 1.48112,-3.098961 1.48112,-1.253256 3.82813,-1.845704 2.36979,-0.615235 4.99023,-0.615235 5.78777,0 8.84116,2.483726 3.07617,2.460939 3.07617,8.020838 v 11.712248 q 0,1.093751 -0.54688,2.050782 -0.54687,0.95703 -1.5039,1.52669 -0.95704,0.56967 -2.07357,0.56967 -1.5267,0 -2.66602,-0.97982 -1.11654,-0.97982 -1.3444,-2.460941 -1.43555,1.982421 -3.3724,2.825521 -1.93685,0.82031 -4.60287,0.82031 z m 2.84831,-5.514322 q 1.5267,0 2.62045,-0.706381 1.11653,-0.729167 1.66341,-1.959637 0.56966,-1.230469 0.56966,-2.757163 v -0.410156 h -2.75716 q -5.12696,0 -5.12696,3.121746 0,1.276043 0.8431,2.00521 0.86589,0.706381 2.1875,0.706381 z"
             style="font-size:46.6667px"
             id="path1217"
             inkscape:label="a" />
          <path
             d="m 216.56589,102.61395 q -1.93685,0 -2.96224,-1.0026 -1.0254,-1.02539 -1.0254,-2.962244 V 71.350911 q 0,-1.936851 1.0254,-2.939456 1.02539,-1.025391 2.96224,-1.025391 h 12.48698 q 3.64584,0 6.19793,1.139324 2.55208,1.116537 3.85091,3.121747 1.29883,1.982423 1.29883,4.557294 0,2.802737 -1.5267,4.807946 -1.52669,1.982424 -4.67122,2.985028 v 0.136719 q 2.09635,0.38737 3.73698,1.435548 1.66341,1.025392 2.62044,2.688804 0.95704,1.640626 0.95704,3.805341 0,3.190107 -1.5267,5.582686 -1.50391,2.369789 -4.375,3.668619 -2.84831,1.29883 -6.79037,1.29883 z m 10.64128,-21.145845 q 2.5293,0 3.69141,-0.979818 1.16211,-1.002605 1.16211,-2.893883 0,-1.868491 -1.16211,-2.848309 -1.16211,-0.979818 -3.69141,-0.979818 h -5.83334 v 7.701828 z m 0.41016,14.742848 q 2.57487,0 3.91927,-1.025391 1.3444,-1.025391 1.3444,-3.212893 0,-2.050782 -1.38997,-3.076174 -1.38998,-1.025391 -3.8737,-1.025391 h -6.2435 v 8.339849 z"
             style="font-size:46.6667px"
             id="path1219"
             inkscape:label="B" />
          <path
             d="m 257.58154,103.18361 q -3.82812,0 -6.88151,-1.64062 -3.0306,-1.640628 -4.76238,-4.625656 -1.70898,-3.007814 -1.70898,-6.949874 0,-3.873701 1.59505,-6.904302 1.61784,-3.030601 4.60287,-4.739586 2.98503,-1.708986 6.97266,-1.708986 3.94206,0 6.83594,1.640626 2.89389,1.61784 4.39779,4.261071 1.50391,2.620444 1.50391,5.582686 0,2.119142 -0.8431,3.121747 -0.8431,0.979818 -2.98503,0.979818 h -13.76303 q 0.25065,2.187502 1.64063,3.531904 1.38997,1.321615 3.57747,1.321615 1.32162,0 2.14193,-0.410157 0.8431,-0.432943 1.59506,-1.16211 0.56966,-0.569662 1.16211,-0.888672 0.61523,-0.341797 1.41276,-0.341797 0.93424,0 1.73177,0.478516 0.82031,0.478516 1.27604,1.321615 0.47852,0.820313 0.47852,1.800132 0,1.617839 -1.38998,2.80274 -1.27604,1.07096 -3.62305,1.80013 -2.32422,0.72916 -4.96745,0.72916 z m 4.19271,-16.06446 q -0.0911,-2.210288 -1.32161,-3.48633 -1.23047,-1.276043 -3.19011,-1.276043 -1.95963,0 -3.1901,1.276043 -1.23047,1.253256 -1.48112,3.48633 z"
             style="font-size:46.6667px"
             id="path1221"
             inkscape:label="e" />
          <path
             d="m 281.0516,103.18361 q -2.39258,0 -4.375,-0.88867 -1.98242,-0.91146 -3.14453,-2.643229 -1.16211,-1.754558 -1.16211,-4.169925 0,-3.440757 1.93685,-5.263675 1.95963,-1.822918 4.80794,-2.415366 2.8711,-0.592449 6.42579,-0.592449 h 3.16732 q 0,-1.48112 -0.22787,-2.392579 -0.22786,-0.934246 -1.0026,-1.481121 -0.77474,-0.546876 -2.32422,-0.546876 -1.23047,0 -1.98243,0.410157 -0.72916,0.38737 -1.45833,1.116537 -0.70638,0.706381 -1.36719,1.070964 -0.63802,0.341798 -1.66341,0.341798 -1.02539,0 -1.89128,-0.45573 -0.8431,-0.455729 -1.3444,-1.253256 -0.5013,-0.820313 -0.5013,-1.845704 0,-1.845705 1.48112,-3.098961 1.48112,-1.253256 3.82813,-1.845704 2.36979,-0.615235 4.99023,-0.615235 5.78777,0 8.84115,2.483726 3.07618,2.460939 3.07618,8.020838 v 11.712248 q 0,1.093751 -0.54688,2.050782 -0.54687,0.95703 -1.5039,1.52669 -0.95704,0.56967 -2.07357,0.56967 -1.5267,0 -2.66602,-0.97982 -1.11654,-0.97982 -1.3444,-2.460941 -1.43555,1.982421 -3.3724,2.825521 -1.93685,0.82031 -4.60287,0.82031 z m 2.84831,-5.514322 q 1.52669,0 2.62045,-0.706381 1.11653,-0.729167 1.66341,-1.959637 0.56966,-1.230469 0.56966,-2.757163 v -0.410156 h -2.75716 q -5.12696,0 -5.12696,3.121746 0,1.276043 0.8431,2.00521 0.86589,0.706381 2.1875,0.706381 z"
             style="font-size:46.6667px"
             id="path1223"
             inkscape:label="a" />
          <path
             d="m 305.66099,102.97854 q -1.18489,0 -2.1875,-0.56967 -0.97982,-0.59244 -1.57226,-1.59505 -0.59245,-1.002604 -0.59245,-2.164714 V 80.830084 q 0,-1.093751 0.54687,-2.00521 0.54688,-0.934245 1.45834,-1.481121 0.93424,-0.546875 2.00521,-0.546875 1.11653,0 2.05078,0.546875 0.93425,0.546876 1.48112,1.481121 0.54688,0.911459 0.54688,2.00521 v 0.638021 q 1.07096,-2.096356 3.12174,-3.463544 2.07357,-1.389975 5.08139,-1.389975 6.28906,0 8.20313,5.081384 1.16211,-2.369794 3.23568,-3.714196 2.07357,-1.367188 5.12695,-1.367188 4.64844,0 6.79037,2.643231 2.16472,2.643231 2.16472,7.291672 v 12.099617 q 0,1.16211 -0.59245,2.164714 -0.59245,0.97982 -1.59505,1.57227 -0.97982,0.59245 -2.14193,0.59245 -1.1849,0 -2.1875,-0.56967 -0.97982,-0.59244 -1.57227,-1.59505 -0.59245,-1.002604 -0.59245,-2.164714 V 87.871104 q 0,-2.597658 -1.11654,-3.600263 -1.09375,-1.025391 -2.55208,-1.025391 -1.70899,0 -2.96224,1.253256 -1.25326,1.253256 -1.25326,4.443362 v 9.707038 q 0,1.16211 -0.59245,2.164714 -0.59245,0.97982 -1.59505,1.57227 -0.97982,0.59245 -2.14193,0.59245 -1.1849,0 -2.1875,-0.56967 -0.97982,-0.59244 -1.57227,-1.59505 -0.59245,-1.002604 -0.59245,-2.164714 V 87.871104 q 0,-2.597658 -1.11653,-3.600263 -1.09375,-1.025391 -2.55209,-1.025391 -1.70898,0 -2.96224,1.253256 -1.25326,1.253256 -1.25326,4.443362 v 9.707038 q 0,1.16211 -0.59244,2.164714 -0.59245,0.97982 -1.59506,1.57227 -0.97981,0.59245 -2.14193,0.59245 z"
             style="font-size:46.6667px;display:inline"
             id="path1225"
             inkscape:label="m" />
        </g>
        <circle
           style="font-size:186.667px;font-family:Jellee;-inkscape-font-specification:'Jellee, Normal';display:inline;fill:url(#radialGradient1161);fill-opacity:1;stroke:none;stroke-width:5;stroke-linejoin:round;stroke-opacity:1"
           id="circle1045"
           cx="447"
           cy="85"
           r="60"
           inkscape:label="lens" />
      </g>
    </g>
  </g>
  <metadata
     id="metadata1179">
    <rdf:RDF>
      <cc:Work
         rdf:about="">
        <dc:title>ChromaBeam Logo</dc:title>
      </cc:Work>
    </rdf:RDF>
  </metadata>
</svg>
